<?xml version="1.0" encoding="utf-8"?>
<!-- Generator: Adobe Illustrator 24.1.1, SVG Export Plug-In . SVG Version: 6.00 Build 0)  -->
<svg version="1.1" id="Capa_1" xmlns="http://www.w3.org/2000/svg" xmlns:xlink="http://www.w3.org/1999/xlink" x="0px" y="0px"
	 viewBox="0 0 129 125" style="enable-background:new 0 0 129 125;" xml:space="preserve">
<style type="text/css">
	.st0{fill:#006F8E;}
	.st1{fill:#D03454;}
</style>
<g>
	<path class="st0" d="M99.05,81.23c15.37-6.54,25.44-19.08,25.44-37.98v-0.35c0-12.19-3.71-21.73-10.95-28.8
		c-8.3-8.48-21.37-13.43-40.28-13.43h-24.2v29.68h22.44c11.48,0,18.55,4.95,18.55,14.66v0.35c0,9.01-6.71,14.66-18.37,14.66H49.06
		v0.01l44,64.29h35.49L99.05,81.23z"/>
	<polygon class="st1" points="58.74,94.3 56.31,94.3 37.15,94.3 34.72,94.3 34.72,0.67 0.45,0.67 0.45,124.33 37.15,124.33 
		76.29,124.33 78.71,124.33 	"/>
</g>
</svg>
