<?xml version="1.0" encoding="utf-8"?>
<!-- Generator: Adobe Illustrator 24.1.1, SVG Export Plug-In . SVG Version: 6.00 Build 0)  -->
<svg version="1.1" id="Capa_1" xmlns="http://www.w3.org/2000/svg" xmlns:xlink="http://www.w3.org/1999/xlink" x="0px" y="0px"
	 viewBox="0 0 150 59" style="enable-background:new 0 0 150 59;" xml:space="preserve">
<style type="text/css">
	.st0{fill:#F9EDB9;}
</style>
<g>
	<g>
		<path class="st0" d="M83,19.6c3.6-1.5,6-4.5,6-8.9v-0.1c0-2.9-0.9-5.1-2.6-6.7c-1.9-2-5-3.1-9.4-3.1h-5.7v7h5.3
			c2.7,0,4.3,1.2,4.3,3.4v0.1c0,2.1-1.6,3.4-4.3,3.4h-5.3v0l10.3,15.1h8.3L83,19.6z"/>
		<polygon class="st0" points="73.5,22.6 73,22.6 68.5,22.6 67.9,22.6 67.9,0.7 59.9,0.7 59.9,29.7 68.5,29.7 77.7,29.7 78.2,29.7 
					"/>
	</g>
	<g>
		<path class="st0" d="M0.8,36.1h1.8v8.8h5.5v1.7H0.8V36.1z"/>
		<path class="st0" d="M17.8,37.7h-5.9v2.7h5.2v1.7h-5.2v2.8h6v1.7H10V36.1h7.7V37.7z"/>
		<path class="st0" d="M30,46.5h-1.9L27,44h-4.9L21,46.5h-1.9L23.7,36h1.7L30,46.5z M24.6,38.2l-1.8,4.2h3.6L24.6,38.2z"/>
		<path class="st0" d="M39.1,36.1h1.8v10.4h-1.5l-5.8-7.4v7.4h-1.8V36.1h1.7l5.6,7.2V36.1z"/>
		<path class="st0" d="M52.7,43.3C52.4,44,52,44.5,51.5,45c-0.5,0.5-1.1,0.8-1.8,1.1c-0.7,0.3-1.4,0.4-2.2,0.4h-3.9V36.1h3.9
			c0.8,0,1.6,0.1,2.2,0.4c0.7,0.3,1.3,0.6,1.8,1.1c0.5,0.5,0.9,1,1.1,1.7c0.3,0.6,0.4,1.3,0.4,2.1C53.1,42,52.9,42.7,52.7,43.3z
			 M50.9,39.9c-0.2-0.4-0.4-0.8-0.7-1.1c-0.3-0.3-0.7-0.6-1.1-0.7c-0.4-0.2-0.9-0.3-1.5-0.3h-2.1v7.1h2.1c0.5,0,1-0.1,1.5-0.3
			c0.4-0.2,0.8-0.4,1.1-0.7c0.3-0.3,0.6-0.7,0.7-1.1c0.2-0.4,0.3-0.9,0.3-1.4C51.1,40.8,51,40.3,50.9,39.9z"/>
		<path class="st0" d="M62,46.5l-2.6-3.6h-2.3v3.6h-1.8V36.1h4.7c0.6,0,1.1,0.1,1.6,0.2c0.5,0.2,0.9,0.4,1.2,0.7
			c0.3,0.3,0.6,0.6,0.8,1c0.2,0.4,0.3,0.9,0.3,1.4c0,0.4-0.1,0.8-0.2,1.2c-0.1,0.3-0.3,0.6-0.5,0.9c-0.2,0.3-0.5,0.5-0.8,0.7
			c-0.3,0.2-0.6,0.3-1,0.4l2.8,4H62z M61.4,38.2c-0.4-0.3-0.9-0.4-1.6-0.4h-2.7v3.5h2.7c0.7,0,1.2-0.2,1.6-0.5
			c0.4-0.3,0.6-0.7,0.6-1.3C62,38.9,61.8,38.5,61.4,38.2z"/>
		<path class="st0" d="M76.1,43.4c-0.3,0.7-0.6,1.2-1.1,1.7c-0.5,0.5-1.1,0.9-1.7,1.2c-0.7,0.3-1.4,0.4-2.2,0.4
			c-0.8,0-1.5-0.1-2.2-0.4c-0.7-0.3-1.2-0.7-1.7-1.2c-0.5-0.5-0.9-1.1-1.1-1.7c-0.3-0.7-0.4-1.4-0.4-2.1c0-0.7,0.1-1.4,0.4-2.1
			c0.3-0.7,0.6-1.2,1.1-1.7c0.5-0.5,1.1-0.9,1.7-1.2c0.7-0.3,1.4-0.4,2.2-0.4c0.8,0,1.5,0.1,2.2,0.4c0.7,0.3,1.2,0.7,1.7,1.2
			c0.5,0.5,0.9,1.1,1.1,1.7c0.3,0.7,0.4,1.4,0.4,2.1C76.5,42,76.4,42.7,76.1,43.4z M74.4,39.9c-0.2-0.5-0.4-0.8-0.7-1.2
			c-0.3-0.3-0.7-0.6-1.1-0.8c-0.4-0.2-0.9-0.3-1.4-0.3c-0.5,0-1,0.1-1.4,0.3c-0.4,0.2-0.8,0.5-1.1,0.8c-0.3,0.3-0.6,0.7-0.7,1.2
			s-0.3,0.9-0.3,1.4c0,0.5,0.1,1,0.3,1.4c0.2,0.5,0.4,0.8,0.7,1.2c0.3,0.3,0.7,0.6,1.1,0.8c0.4,0.2,0.9,0.3,1.4,0.3
			c0.5,0,1-0.1,1.4-0.3c0.4-0.2,0.8-0.5,1.1-0.8c0.3-0.3,0.5-0.7,0.7-1.2c0.2-0.5,0.3-0.9,0.3-1.4C74.6,40.8,74.5,40.3,74.4,39.9z"
			/>
		<path class="st0" d="M89.9,46.5l-2.6-3.6h-2.3v3.6h-1.8V36.1h4.7c0.6,0,1.1,0.1,1.6,0.2c0.5,0.2,0.9,0.4,1.2,0.7
			c0.3,0.3,0.6,0.6,0.8,1c0.2,0.4,0.3,0.9,0.3,1.4c0,0.4-0.1,0.8-0.2,1.2c-0.1,0.3-0.3,0.6-0.5,0.9c-0.2,0.3-0.5,0.5-0.8,0.7
			c-0.3,0.2-0.6,0.3-1,0.4l2.8,4H89.9z M89.3,38.2c-0.4-0.3-0.9-0.4-1.6-0.4h-2.7v3.5h2.7c0.7,0,1.2-0.2,1.6-0.5
			c0.4-0.3,0.6-0.7,0.6-1.3C89.9,38.9,89.7,38.5,89.3,38.2z"/>
		<path class="st0" d="M104.1,43.4c-0.3,0.7-0.6,1.2-1.1,1.7c-0.5,0.5-1.1,0.9-1.7,1.2c-0.7,0.3-1.4,0.4-2.2,0.4
			c-0.8,0-1.5-0.1-2.2-0.4c-0.7-0.3-1.2-0.7-1.7-1.2c-0.5-0.5-0.9-1.1-1.1-1.7c-0.3-0.7-0.4-1.4-0.4-2.1c0-0.7,0.1-1.4,0.4-2.1
			c0.3-0.7,0.6-1.2,1.1-1.7c0.5-0.5,1.1-0.9,1.7-1.2c0.7-0.3,1.4-0.4,2.2-0.4c0.8,0,1.5,0.1,2.2,0.4c0.7,0.3,1.2,0.7,1.7,1.2
			c0.5,0.5,0.9,1.1,1.1,1.7c0.3,0.7,0.4,1.4,0.4,2.1C104.5,42,104.4,42.7,104.1,43.4z M102.3,39.9c-0.2-0.5-0.4-0.8-0.7-1.2
			c-0.3-0.3-0.7-0.6-1.1-0.8s-0.9-0.3-1.4-0.3c-0.5,0-1,0.1-1.4,0.3c-0.4,0.2-0.8,0.5-1.1,0.8c-0.3,0.3-0.6,0.7-0.7,1.2
			s-0.3,0.9-0.3,1.4c0,0.5,0.1,1,0.3,1.4c0.2,0.5,0.4,0.8,0.7,1.2c0.3,0.3,0.7,0.6,1.1,0.8c0.4,0.2,0.9,0.3,1.4,0.3
			c0.5,0,1-0.1,1.4-0.3c0.4-0.2,0.8-0.5,1.1-0.8c0.3-0.3,0.5-0.7,0.7-1.2c0.2-0.5,0.3-0.9,0.3-1.4C102.6,40.8,102.5,40.3,102.3,39.9
			z"/>
		<path class="st0" d="M106.7,36.1h1.8v8.8h5.5v1.7h-7.3V36.1z"/>
		<path class="st0" d="M126,46.5H124L123,44H118l-1.1,2.5h-1.9l4.6-10.5h1.7L126,46.5z M120.5,38.2l-1.8,4.2h3.6L120.5,38.2z"/>
		<path class="st0" d="M135,36.1h1.8v10.4h-1.5l-5.8-7.4v7.4h-1.8V36.1h1.7l5.6,7.2V36.1z"/>
		<path class="st0" d="M148.6,43.3c-0.3,0.6-0.6,1.2-1.1,1.7c-0.5,0.5-1.1,0.8-1.8,1.1c-0.7,0.3-1.4,0.4-2.2,0.4h-3.9V36.1h3.9
			c0.8,0,1.6,0.1,2.2,0.4c0.7,0.3,1.3,0.6,1.8,1.1c0.5,0.5,0.9,1,1.1,1.7c0.3,0.6,0.4,1.3,0.4,2.1C149,42,148.9,42.7,148.6,43.3z
			 M146.8,39.9c-0.2-0.4-0.4-0.8-0.7-1.1c-0.3-0.3-0.7-0.6-1.1-0.7c-0.4-0.2-0.9-0.3-1.5-0.3h-2.1v7.1h2.1c0.5,0,1-0.1,1.5-0.3
			c0.4-0.2,0.8-0.4,1.1-0.7c0.3-0.3,0.6-0.7,0.7-1.1c0.2-0.4,0.3-0.9,0.3-1.4C147.1,40.8,147,40.3,146.8,39.9z"/>
	</g>
	<g>
		<path class="st0" d="M23.6,55.9c-0.2,0.4-0.4,0.8-0.8,1.1c-0.3,0.3-0.7,0.6-1.2,0.8c-0.5,0.2-1,0.3-1.5,0.3h-2.5v-7.1h2.5
			c0.6,0,1.1,0.1,1.5,0.3s0.9,0.4,1.2,0.7c0.3,0.3,0.6,0.7,0.8,1.1c0.2,0.4,0.3,0.9,0.3,1.4S23.8,55.5,23.6,55.9z M22.8,53.4
			c-0.1-0.3-0.3-0.6-0.6-0.9c-0.3-0.3-0.6-0.5-0.9-0.6s-0.8-0.2-1.2-0.2h-1.7v5.6h1.7c0.4,0,0.9-0.1,1.2-0.2s0.7-0.3,0.9-0.6
			c0.3-0.3,0.5-0.6,0.6-0.9c0.1-0.3,0.2-0.7,0.2-1.1C23,54.1,23,53.7,22.8,53.4z"/>
		<path class="st0" d="M26.4,50.9v7.1h-0.8v-7.1H26.4z"/>
		<path class="st0" d="M29.2,53.2c0.1,0.1,0.2,0.3,0.3,0.4c0.1,0.1,0.3,0.2,0.6,0.3c0.3,0.1,0.6,0.2,1,0.3c0.8,0.2,1.4,0.4,1.8,0.7
			c0.4,0.3,0.6,0.7,0.6,1.3c0,0.3-0.1,0.6-0.2,0.8c-0.1,0.3-0.3,0.5-0.5,0.6c-0.2,0.2-0.5,0.3-0.8,0.4c-0.3,0.1-0.6,0.1-1,0.1
			c-0.6,0-1.1-0.1-1.6-0.3c-0.5-0.2-0.9-0.5-1.3-0.9l0.5-0.6c0.4,0.3,0.7,0.6,1.1,0.8c0.4,0.2,0.8,0.2,1.3,0.2
			c0.5,0,0.9-0.1,1.2-0.3c0.3-0.2,0.4-0.5,0.4-0.9c0-0.2,0-0.3-0.1-0.5c-0.1-0.1-0.1-0.3-0.3-0.4c-0.1-0.1-0.3-0.2-0.6-0.3
			c-0.2-0.1-0.5-0.2-0.9-0.3c-0.4-0.1-0.8-0.2-1.1-0.3c-0.3-0.1-0.6-0.3-0.8-0.4s-0.3-0.4-0.4-0.6s-0.1-0.5-0.1-0.8
			c0-0.3,0.1-0.5,0.2-0.8c0.1-0.2,0.3-0.4,0.5-0.6c0.2-0.2,0.5-0.3,0.7-0.4c0.3-0.1,0.6-0.1,0.9-0.1c0.5,0,1,0.1,1.4,0.2
			s0.8,0.4,1.1,0.6l-0.5,0.6c-0.3-0.3-0.7-0.5-1-0.6c-0.3-0.1-0.7-0.2-1.1-0.2c-0.2,0-0.4,0-0.6,0.1c-0.2,0.1-0.3,0.1-0.5,0.2
			c-0.1,0.1-0.2,0.2-0.3,0.4c-0.1,0.1-0.1,0.3-0.1,0.5C29.1,52.9,29.2,53,29.2,53.2z"/>
		<path class="st0" d="M40.2,51.7h-4.3v2.4h3.9v0.7h-3.9v2.5h4.4v0.7H35v-7.1h5.1V51.7z"/>
		<path class="st0" d="M47.1,50.9h0.8v7.1h-0.6l-4.6-5.8v5.8h-0.8v-7.1h0.8l4.5,5.7V50.9z M46.1,50.1c-0.1,0.2-0.3,0.2-0.6,0.2
			c-0.1,0-0.2,0-0.4-0.1c-0.1,0-0.2-0.1-0.4-0.1c-0.1,0-0.2-0.1-0.3-0.1c-0.1,0-0.2-0.1-0.3-0.1c-0.1,0-0.2,0-0.3,0.1
			c-0.1,0.1-0.1,0.2-0.2,0.4l-0.5-0.1c0.1-0.4,0.2-0.7,0.4-0.8c0.1-0.2,0.3-0.2,0.6-0.2c0.1,0,0.2,0,0.4,0.1c0.1,0,0.2,0.1,0.4,0.1
			c0.1,0,0.2,0.1,0.3,0.1c0.1,0,0.2,0.1,0.3,0.1c0.1,0,0.2,0,0.3-0.1s0.1-0.2,0.2-0.4l0.5,0.1C46.4,49.6,46.3,49.9,46.1,50.1z"/>
		<path class="st0" d="M56.5,58.1h-0.9l-0.8-1.9h-3.9l-0.8,1.9h-0.8l3.2-7.2h0.8L56.5,58.1z M52.9,51.8l-1.6,3.6h3.2L52.9,51.8z"/>
		<path class="st0" d="M63.9,55.9c-0.2,0.4-0.4,0.8-0.8,1.1c-0.3,0.3-0.7,0.6-1.2,0.8c-0.5,0.2-1,0.3-1.5,0.3h-2.5v-7.1h2.5
			c0.6,0,1.1,0.1,1.5,0.3s0.9,0.4,1.2,0.7c0.3,0.3,0.6,0.7,0.8,1.1c0.2,0.4,0.3,0.9,0.3,1.4S64.1,55.5,63.9,55.9z M63.1,53.4
			c-0.1-0.3-0.3-0.6-0.6-0.9c-0.3-0.3-0.6-0.5-0.9-0.6s-0.8-0.2-1.2-0.2h-1.7v5.6h1.7c0.4,0,0.9-0.1,1.2-0.2s0.7-0.3,0.9-0.6
			c0.3-0.3,0.5-0.6,0.6-0.9s0.2-0.7,0.2-1.1C63.3,54.1,63.3,53.7,63.1,53.4z"/>
		<path class="st0" d="M72.6,55.9c-0.2,0.4-0.4,0.8-0.7,1.2c-0.3,0.3-0.7,0.6-1.2,0.8c-0.4,0.2-0.9,0.3-1.5,0.3s-1-0.1-1.5-0.3
			c-0.4-0.2-0.8-0.5-1.1-0.8c-0.3-0.3-0.6-0.7-0.7-1.2c-0.2-0.4-0.3-0.9-0.3-1.4c0-0.5,0.1-1,0.3-1.4c0.2-0.4,0.4-0.8,0.7-1.2
			c0.3-0.3,0.7-0.6,1.2-0.8c0.4-0.2,0.9-0.3,1.5-0.3c0.5,0,1,0.1,1.5,0.3c0.4,0.2,0.8,0.5,1.1,0.8c0.3,0.3,0.6,0.7,0.7,1.2
			c0.2,0.4,0.3,0.9,0.3,1.4C72.8,55,72.7,55.4,72.6,55.9z M71.8,53.4c-0.1-0.4-0.3-0.7-0.6-0.9c-0.3-0.3-0.5-0.5-0.9-0.6
			c-0.3-0.2-0.7-0.2-1.1-0.2c-0.4,0-0.8,0.1-1.1,0.2c-0.3,0.2-0.6,0.4-0.9,0.6c-0.2,0.3-0.4,0.6-0.6,0.9c-0.1,0.4-0.2,0.7-0.2,1.1
			c0,0.4,0.1,0.8,0.2,1.1c0.1,0.4,0.3,0.7,0.6,0.9c0.3,0.3,0.5,0.5,0.9,0.6c0.3,0.2,0.7,0.2,1.1,0.2c0.4,0,0.8-0.1,1.1-0.2
			c0.3-0.2,0.6-0.4,0.9-0.6c0.2-0.3,0.4-0.6,0.6-0.9c0.1-0.4,0.2-0.7,0.2-1.1C72,54.1,71.9,53.7,71.8,53.4z"/>
		<path class="st0" d="M79.4,58.1l-2.1-2.8h-2v2.8h-0.8v-7.1h3.1c0.4,0,0.7,0.1,1.1,0.2c0.3,0.1,0.6,0.2,0.8,0.4
			c0.2,0.2,0.4,0.4,0.5,0.7c0.1,0.3,0.2,0.6,0.2,0.9c0,0.3,0,0.6-0.1,0.8c-0.1,0.2-0.2,0.4-0.4,0.6c-0.2,0.2-0.4,0.3-0.6,0.4
			c-0.2,0.1-0.5,0.2-0.8,0.2l2.2,2.9H79.4z M78.9,52c-0.3-0.2-0.8-0.4-1.3-0.4h-2.2v2.9h2.2c0.3,0,0.5,0,0.7-0.1
			c0.2-0.1,0.4-0.2,0.6-0.3s0.3-0.3,0.4-0.5c0.1-0.2,0.1-0.4,0.1-0.6C79.4,52.6,79.2,52.3,78.9,52z"/>
		<path class="st0" d="M89.9,57.9c-0.5,0.2-1,0.3-1.6,0.3c-0.6,0-1.1-0.1-1.5-0.3c-0.4-0.2-0.8-0.5-1.1-0.8
			c-0.3-0.3-0.6-0.7-0.7-1.2c-0.2-0.4-0.2-0.9-0.2-1.4c0-0.5,0.1-1,0.3-1.4c0.2-0.4,0.4-0.8,0.7-1.2c0.3-0.3,0.7-0.6,1.1-0.8
			c0.4-0.2,0.9-0.3,1.5-0.3c0.3,0,0.6,0,0.8,0.1c0.2,0,0.5,0.1,0.7,0.2c0.2,0.1,0.4,0.2,0.6,0.3c0.2,0.1,0.4,0.3,0.5,0.4l-0.5,0.6
			c-0.1-0.1-0.3-0.2-0.4-0.3c-0.1-0.1-0.3-0.2-0.5-0.3c-0.2-0.1-0.4-0.1-0.6-0.2s-0.4-0.1-0.7-0.1c-0.4,0-0.8,0.1-1.1,0.2
			c-0.3,0.2-0.6,0.4-0.9,0.6c-0.2,0.3-0.4,0.6-0.6,0.9c-0.1,0.4-0.2,0.7-0.2,1.1c0,0.4,0.1,0.8,0.2,1.2s0.3,0.7,0.6,0.9
			c0.2,0.3,0.5,0.5,0.9,0.6c0.3,0.1,0.7,0.2,1.2,0.2c0.4,0,0.8-0.1,1.2-0.2c0.4-0.1,0.7-0.3,0.9-0.5V55h-2.2v-0.7h2.9v2.8
			C90.8,57.4,90.4,57.6,89.9,57.9z"/>
		<path class="st0" d="M97.8,58.1l-2.1-2.8h-2v2.8h-0.8v-7.1H96c0.4,0,0.7,0.1,1.1,0.2c0.3,0.1,0.6,0.2,0.8,0.4
			c0.2,0.2,0.4,0.4,0.5,0.7c0.1,0.3,0.2,0.6,0.2,0.9c0,0.3,0,0.6-0.1,0.8c-0.1,0.2-0.2,0.4-0.4,0.6c-0.2,0.2-0.4,0.3-0.6,0.4
			c-0.2,0.1-0.5,0.2-0.8,0.2l2.2,2.9H97.8z M97.3,52c-0.3-0.2-0.8-0.4-1.3-0.4h-2.2v2.9h2.2c0.3,0,0.5,0,0.7-0.1s0.4-0.2,0.6-0.3
			s0.3-0.3,0.4-0.5c0.1-0.2,0.1-0.4,0.1-0.6C97.7,52.6,97.6,52.3,97.3,52z"/>
		<path class="st0" d="M106.9,58.1H106l-0.8-1.9h-3.9l-0.8,1.9h-0.8l3.2-7.2h0.8L106.9,58.1z M103.3,51.8l-1.6,3.6h3.2L103.3,51.8z
			 M103,50.3l1-1.5l0.8,0.4l-1.2,1.1H103z"/>
		<path class="st0" d="M113.4,51.7h-4.3v2.5h3.9V55h-3.9v3.1h-0.8v-7.1h5.1V51.7z"/>
		<path class="st0" d="M115.8,50.9v7.1H115v-7.1H115.8z"/>
		<path class="st0" d="M123.5,57.4c-0.2,0.2-0.4,0.3-0.6,0.4c-0.2,0.1-0.5,0.2-0.7,0.3c-0.3,0.1-0.6,0.1-0.9,0.1
			c-0.5,0-1-0.1-1.4-0.3c-0.4-0.2-0.8-0.4-1.1-0.8c-0.3-0.3-0.6-0.7-0.7-1.2c-0.2-0.4-0.3-0.9-0.3-1.4c0-0.5,0.1-1,0.3-1.4
			c0.2-0.4,0.4-0.8,0.7-1.2c0.3-0.3,0.7-0.6,1.1-0.8c0.4-0.2,0.9-0.3,1.4-0.3c0.3,0,0.6,0,0.9,0.1c0.3,0.1,0.5,0.1,0.7,0.2
			c0.2,0.1,0.4,0.2,0.6,0.4c0.2,0.1,0.4,0.3,0.5,0.5l-0.5,0.6c-0.3-0.3-0.6-0.5-1-0.7c-0.3-0.2-0.8-0.3-1.3-0.3
			c-0.4,0-0.8,0.1-1.1,0.2c-0.3,0.1-0.6,0.4-0.9,0.6c-0.2,0.3-0.4,0.6-0.6,0.9s-0.2,0.7-0.2,1.2c0,0.4,0.1,0.8,0.2,1.2
			s0.3,0.7,0.6,0.9c0.2,0.3,0.5,0.5,0.9,0.6c0.3,0.2,0.7,0.2,1.1,0.2c0.5,0,0.9-0.1,1.3-0.3s0.7-0.4,1-0.8l0.5,0.5
			C123.9,57.1,123.7,57.3,123.5,57.4z"/>
		<path class="st0" d="M131.9,55.9c-0.2,0.4-0.4,0.8-0.7,1.2c-0.3,0.3-0.7,0.6-1.2,0.8c-0.4,0.2-0.9,0.3-1.5,0.3
			c-0.5,0-1-0.1-1.5-0.3c-0.4-0.2-0.8-0.5-1.1-0.8c-0.3-0.3-0.6-0.7-0.7-1.2c-0.2-0.4-0.3-0.9-0.3-1.4c0-0.5,0.1-1,0.3-1.4
			c0.2-0.4,0.4-0.8,0.7-1.2c0.3-0.3,0.7-0.6,1.2-0.8c0.4-0.2,0.9-0.3,1.5-0.3c0.5,0,1,0.1,1.5,0.3c0.4,0.2,0.8,0.5,1.1,0.8
			c0.3,0.3,0.6,0.7,0.7,1.2c0.2,0.4,0.3,0.9,0.3,1.4C132.2,55,132.1,55.4,131.9,55.9z M131.1,53.4c-0.1-0.4-0.3-0.7-0.6-0.9
			c-0.3-0.3-0.5-0.5-0.9-0.6c-0.3-0.2-0.7-0.2-1.1-0.2c-0.4,0-0.8,0.1-1.1,0.2c-0.3,0.2-0.6,0.4-0.9,0.6c-0.2,0.3-0.4,0.6-0.6,0.9
			c-0.1,0.4-0.2,0.7-0.2,1.1c0,0.4,0.1,0.8,0.2,1.1c0.1,0.4,0.3,0.7,0.6,0.9c0.3,0.3,0.5,0.5,0.9,0.6c0.3,0.2,0.7,0.2,1.1,0.2
			c0.4,0,0.8-0.1,1.1-0.2c0.3-0.2,0.6-0.4,0.9-0.6c0.2-0.3,0.4-0.6,0.6-0.9c0.1-0.4,0.2-0.7,0.2-1.1
			C131.4,54.1,131.3,53.7,131.1,53.4z"/>
	</g>
</g>
</svg>
