<?xml version="1.0" encoding="utf-8"?>
<!-- Generator: Adobe Illustrator 24.1.0, SVG Export Plug-In . SVG Version: 6.00 Build 0)  -->
<svg version="1.1" id="Capa_1" xmlns="http://www.w3.org/2000/svg" xmlns:xlink="http://www.w3.org/1999/xlink" x="0px" y="0px"
	 viewBox="0 0 150 20" style="enable-background:new 0 0 150 20;" xml:space="preserve">
<style type="text/css">
	.st0{fill:#FFFFFF;}
</style>
<g>
	<path class="st0" d="M25.4,0.9H27v7.3h4.6v1.4h-6.1V0.9H25.4z"/>
	<path class="st0" d="M39.6,2.3h-4.9v2.2H39v1.4h-4.4v2.3h5v1.4h-6.5V0.9h6.4L39.6,2.3L39.6,2.3z"/>
	<path class="st0" d="M49.8,9.6h-1.6l-0.9-2.1h-4.1l-0.9,2.1h-1.6l3.8-8.8H46L49.8,9.6z M45.2,2.7l-1.5,3.5h3L45.2,2.7z"/>
	<path class="st0" d="M57.4,0.9h1.5v8.7h-1.3l-4.8-6.2v6.2h-1.5V0.9h1.4l4.7,6C57.4,6.9,57.4,0.9,57.4,0.9z"/>
	<path class="st0" d="M68.7,6.9c-0.2,0.5-0.5,1-1,1.4c-0.4,0.4-0.9,0.7-1.5,0.9S65,9.5,64.3,9.5h-3.2V0.9h3.2c0.7,0,1.3,0.1,1.9,0.3
		s1.1,0.5,1.5,0.9s0.7,0.9,1,1.4C68.9,4,69,4.6,69,5.2S68.9,6.4,68.7,6.9z M67.2,4.1c-0.1-0.4-0.3-0.7-0.6-0.9s-0.6-0.5-1-0.6
		s-0.8-0.2-1.2-0.2h-1.7v5.9h1.7c0.5,0,0.9-0.1,1.2-0.2c0.4-0.1,0.7-0.3,1-0.6c0.3-0.3,0.5-0.6,0.6-0.9c0.1-0.4,0.2-0.8,0.2-1.2
		C67.4,4.8,67.3,4.4,67.2,4.1z"/>
	<path class="st0" d="M76.5,9.6l-2.1-3h-1.9v3H71V0.9h3.9c0.5,0,0.9,0.1,1.3,0.2s0.7,0.3,1,0.5s0.5,0.5,0.6,0.9
		C77.9,2.8,78,3.2,78,3.6s-0.1,0.7-0.2,1s-0.2,0.5-0.4,0.8C77.2,5.6,77,5.8,76.7,6s-0.5,0.3-0.8,0.4l2.4,3.3L76.5,9.6L76.5,9.6z
		 M76,2.6c-0.3-0.2-0.8-0.4-1.3-0.4h-2.2v2.9h2.2c0.5,0,1-0.1,1.3-0.4s0.5-0.6,0.5-1.1C76.4,3.2,76.3,2.9,76,2.6z"/>
	<path class="st0" d="M88.3,7c-0.2,0.5-0.5,1-0.9,1.4s-0.9,0.7-1.4,1s-1.3,0.3-2,0.3s-1.3-0.1-1.8-0.4c-0.6-0.2-1-0.6-1.4-1
		C80.4,8,80,7.5,79.8,7s-0.3-1.1-0.3-1.7s0.1-1.2,0.3-1.7c0.2-0.5,0.5-1,0.9-1.4s0.9-0.7,1.4-1c0.6-0.2,1.2-0.4,1.8-0.4
		c0.7,0,1.3,0.1,1.8,0.4s1,0.6,1.4,1s0.7,0.9,0.9,1.4c0.2,0.5,0.3,1.1,0.3,1.7S88.5,6.4,88.3,7z M86.8,4.1c-0.1-0.4-0.3-0.7-0.6-1
		c-0.3-0.3-0.6-0.5-0.9-0.7c-0.4-0.2-0.8-0.2-1.2-0.2s-0.8,0.1-1.2,0.2c-0.4,0.2-0.7,0.4-0.9,0.7s-0.5,0.6-0.6,1s-0.2,0.8-0.2,1.2
		s0.1,0.8,0.2,1.2c0.1,0.4,0.3,0.7,0.6,1c0.3,0.3,0.6,0.5,0.9,0.7c0.4,0.2,0.8,0.2,1.2,0.2c0.4,0,0.8-0.1,1.2-0.2
		C85.7,8,86,7.8,86.2,7.5c0.3-0.3,0.5-0.6,0.6-1S87,5.7,87,5.3C87,4.8,86.9,4.4,86.8,4.1z"/>
	<path class="st0" d="M99.8,9.6l-2.1-3h-1.9v3h-1.5V0.9h3.9c0.5,0,0.9,0.1,1.3,0.2s0.7,0.3,1,0.5s0.5,0.5,0.6,0.9
		c0.1,0.3,0.2,0.7,0.2,1.2c0,0.4-0.1,0.7-0.2,1s-0.2,0.5-0.4,0.8c-0.2,0.2-0.4,0.4-0.7,0.6s-0.5,0.3-0.8,0.4l2.4,3.3L99.8,9.6
		L99.8,9.6z M99.3,2.6C99,2.4,98.5,2.2,98,2.2h-2.2v2.9H98c0.5,0,1-0.1,1.3-0.4s0.5-0.6,0.5-1.1C99.7,3.2,99.6,2.9,99.3,2.6z"/>
	<path class="st0" d="M111.6,7c-0.2,0.5-0.5,1-0.9,1.4s-0.9,0.7-1.4,1s-1.2,0.4-1.8,0.4c-0.7,0-1.3-0.1-1.8-0.4
		c-0.6-0.2-1-0.6-1.4-1c-0.4-0.4-0.7-0.9-0.9-1.4c-0.2-0.5-0.3-1.1-0.3-1.7s0.1-1.2,0.3-1.7c0.2-0.5,0.5-1,0.9-1.4s0.9-0.7,1.4-1
		c0.6-0.2,1.2-0.4,1.8-0.4c0.7,0,1.3,0.1,1.8,0.4s1,0.6,1.4,1s0.7,0.9,0.9,1.4c0.2,0.5,0.3,1.1,0.3,1.7S111.8,6.4,111.6,7z
		 M110.1,4.1c-0.1-0.4-0.3-0.7-0.6-1c-0.3-0.3-0.6-0.5-0.9-0.7c-0.4-0.2-0.8-0.2-1.2-0.2s-0.8,0.1-1.2,0.2c-0.4,0.2-0.7,0.4-0.9,0.7
		s-0.5,0.6-0.6,1s-0.2,0.8-0.2,1.2s0.1,0.8,0.2,1.2c0.1,0.4,0.3,0.7,0.6,1c0.3,0.3,0.6,0.5,0.9,0.7c0.4,0.2,0.8,0.2,1.2,0.2
		s0.8-0.1,1.2-0.2c0.4-0.2,0.7-0.4,0.9-0.7c0.3-0.3,0.5-0.6,0.6-1s0.2-0.8,0.2-1.2C110.3,4.8,110.2,4.4,110.1,4.1z"/>
	<path class="st0" d="M113.8,0.9h1.5v7.3h4.6v1.4h-6.1V0.9z"/>
	<path class="st0" d="M129.8,9.6h-1.6l-0.9-2.1h-4.1l-0.9,2.1h-1.6l3.8-8.8h1.4L129.8,9.6z M125.2,2.7l-1.5,3.5h3L125.2,2.7z"/>
	<path class="st0" d="M137.4,0.9h1.5v8.7h-1.3l-4.8-6.2v6.2h-1.5V0.9h1.4l4.7,6L137.4,0.9L137.4,0.9z"/>
	<path class="st0" d="M148.7,6.9c-0.2,0.5-0.5,1-1,1.4c-0.4,0.4-0.9,0.7-1.5,0.9s-1.2,0.3-1.9,0.3h-3.2V0.9h3.2
		c0.7,0,1.3,0.1,1.9,0.3c0.6,0.2,1.1,0.5,1.5,0.9s0.7,0.9,1,1.4c0.2,0.5,0.3,1.1,0.3,1.7S148.9,6.4,148.7,6.9z M147.2,4.1
		c-0.1-0.4-0.4-0.7-0.6-0.9s-0.6-0.5-1-0.6s-0.8-0.2-1.2-0.2h-1.7v5.9h1.7c0.5,0,0.9-0.1,1.2-0.2c0.4-0.1,0.7-0.3,1-0.6
		c0.3-0.3,0.5-0.6,0.6-0.9c0.1-0.4,0.2-0.8,0.2-1.2C147.4,4.8,147.3,4.4,147.2,4.1z"/>
</g>
<g>
	<path class="st0" d="M30.3,17.4c-0.2,0.4-0.4,0.7-0.6,0.9c-0.3,0.3-0.6,0.5-1,0.6c-0.4,0.2-0.8,0.2-1.3,0.2h-2.1v-5.9h2.1
		c0.5,0,0.9,0.1,1.3,0.2c0.4,0.1,0.7,0.4,1,0.6c0.3,0.3,0.5,0.6,0.6,0.9c0.2,0.4,0.2,0.8,0.2,1.2C30.5,16.7,30.4,17,30.3,17.4z
		 M29.6,15.3c-0.1-0.3-0.3-0.5-0.5-0.8c-0.2-0.2-0.5-0.4-0.8-0.5s-0.6-0.2-1-0.2h-1.4v4.7h1.4c0.4,0,0.7-0.1,1-0.2s0.6-0.3,0.8-0.5
		c0.2-0.2,0.4-0.5,0.5-0.7c0.1-0.3,0.2-0.6,0.2-0.9C29.8,15.9,29.7,15.6,29.6,15.3z"/>
	<path class="st0" d="M33.1,13.3v5.9h-0.7v-5.9C32.4,13.3,33.1,13.3,33.1,13.3z"/>
	<path class="st0" d="M37.4,15.1c0,0.1,0.1,0.2,0.2,0.3c0.1,0.1,0.3,0.2,0.5,0.3s0.5,0.1,0.8,0.2c0.7,0.1,1.1,0.4,1.5,0.6
		c0.3,0.3,0.5,0.6,0.5,1.1c0,0.3,0,0.5-0.2,0.7c-0.1,0.2-0.2,0.4-0.4,0.5s-0.4,0.3-0.6,0.3s-0.5,0.1-0.8,0.1c-0.5,0-0.9-0.1-1.3-0.2
		c-0.4-0.2-0.8-0.4-1.1-0.7l0.4-0.5c0.3,0.3,0.6,0.5,0.9,0.6c0.3,0.1,0.7,0.2,1.1,0.2c0.4,0,0.7-0.1,1-0.3c0.2-0.2,0.4-0.4,0.4-0.7
		c0-0.1,0-0.3-0.1-0.4c0-0.1-0.1-0.2-0.2-0.3c-0.1-0.1-0.3-0.2-0.5-0.2c-0.2-0.1-0.5-0.1-0.8-0.2s-0.6-0.2-0.9-0.3
		c-0.3-0.1-0.5-0.2-0.6-0.3s-0.3-0.3-0.4-0.5s-0.1-0.4-0.1-0.6c0-0.2,0-0.5,0.1-0.7s0.2-0.4,0.4-0.5s0.4-0.3,0.6-0.3
		c0.2-0.1,0.5-0.1,0.8-0.1c0.4,0,0.8,0.1,1.1,0.2s0.6,0.3,0.9,0.5l-0.4,0.5c-0.3-0.2-0.6-0.4-0.8-0.5c-0.3-0.1-0.6-0.2-0.9-0.2
		c-0.2,0-0.4,0-0.5,0.1c-0.2,0.1-0.3,0.1-0.4,0.2c-0.1,0.1-0.2,0.2-0.3,0.3s-0.1,0.2-0.1,0.4C37.3,14.9,37.3,15,37.4,15.1z"/>
	<path class="st0" d="M48.6,13.9H45v2h3.2v0.6H45v2.1h3.7v0.6h-4.3v-5.9h4.3v0.6H48.6z"/>
	<path class="st0" d="M57.2,13.3h0.7v5.9h-0.5l-3.8-4.9v4.9h-0.7v-5.9h0.6l3.7,4.8V13.3z M56.4,12.5c-0.1,0.1-0.3,0.2-0.5,0.2
		c-0.1,0-0.2,0-0.3-0.1s-0.2-0.1-0.3-0.1s-0.2-0.1-0.3-0.1s-0.2-0.1-0.2-0.1c-0.1,0-0.2,0-0.3,0.1s-0.1,0.2-0.2,0.3l-0.4-0.1
		c0.1-0.3,0.2-0.6,0.3-0.7c0.1-0.1,0.3-0.2,0.5-0.2c0.1,0,0.2,0,0.3,0.1c0.1,0,0.2,0.1,0.3,0.1s0.2,0.1,0.3,0.1s0.2,0,0.2,0
		c0.1,0,0.2,0,0.3-0.1s0.1-0.2,0.2-0.3l0.4,0.1C56.6,12.2,56.5,12.4,56.4,12.5z"/>
	<path class="st0" d="M66.2,19.2h-0.7l-0.7-1.6h-3.2l-0.7,1.6h-0.7l2.7-6h0.6L66.2,19.2z M63.2,14l-1.4,3h2.7L63.2,14z"/>
	<path class="st0" d="M73.4,17.4c-0.2,0.4-0.4,0.7-0.6,0.9c-0.3,0.3-0.6,0.5-1,0.6s-0.8,0.2-1.3,0.2h-2.1v-5.9h2.1
		c0.5,0,0.9,0.1,1.3,0.2c0.4,0.1,0.7,0.4,1,0.6c0.3,0.3,0.5,0.6,0.6,0.9c0.2,0.4,0.2,0.8,0.2,1.2C73.7,16.7,73.6,17,73.4,17.4z
		 M72.8,15.3c-0.1-0.3-0.3-0.5-0.5-0.8c-0.2-0.2-0.5-0.4-0.8-0.5s-0.6-0.2-1-0.2h-1.4v4.7h1.4c0.4,0,0.7-0.1,1-0.2s0.6-0.3,0.8-0.5
		c0.2-0.2,0.4-0.5,0.5-0.7s0.2-0.6,0.2-0.9S72.9,15.6,72.8,15.3z"/>
	<path class="st0" d="M81.7,17.4c-0.1,0.4-0.4,0.7-0.6,1c-0.3,0.3-0.6,0.5-1,0.7s-0.8,0.3-1.2,0.3c-0.5,0-0.9-0.1-1.2-0.2
		c-0.4-0.2-0.7-0.4-1-0.7s-0.5-0.6-0.6-1s-0.2-0.8-0.2-1.2c0-0.4,0.1-0.8,0.2-1.2s0.4-0.7,0.6-1c0.3-0.3,0.6-0.5,1-0.7
		s0.8-0.3,1.2-0.3c0.5,0,0.9,0.1,1.2,0.2c0.4,0.2,0.7,0.4,1,0.7s0.5,0.6,0.6,1s0.2,0.8,0.2,1.2C81.9,16.7,81.9,17,81.7,17.4z
		 M81.1,15.3c-0.1-0.3-0.3-0.6-0.5-0.8s-0.5-0.4-0.7-0.5c-0.3-0.1-0.6-0.2-0.9-0.2s-0.8,0.1-1,0.2c-0.3,0.1-0.5,0.3-0.7,0.5
		s-0.4,0.5-0.5,0.8s-0.2,0.6-0.2,1c0,0.3,0.1,0.7,0.2,1s0.3,0.6,0.5,0.8c0.2,0.2,0.5,0.4,0.7,0.5c0.3,0.1,0.6,0.2,0.9,0.2
		s0.7-0.1,0.9-0.2c0.3-0.1,0.5-0.3,0.7-0.5s0.4-0.5,0.5-0.8s0.2-0.6,0.2-1S81.2,15.6,81.1,15.3z"/>
	<path class="st0" d="M88.4,19.2l-1.7-2.3H85v2.3h-0.7v-5.9h2.6c0.3,0,0.6,0,0.9,0.1s0.5,0.2,0.7,0.4s0.3,0.3,0.4,0.6
		c0.1,0.2,0.2,0.5,0.2,0.7s0,0.5-0.1,0.7c-0.1,0.2-0.2,0.4-0.3,0.5c-0.1,0.1-0.3,0.3-0.5,0.4s-0.4,0.2-0.6,0.2l1.8,2.4L88.4,19.2
		L88.4,19.2z M87.9,14.2c-0.3-0.2-0.6-0.3-1.1-0.3H85v2.4h1.8c0.2,0,0.4,0,0.6-0.1s0.3-0.1,0.5-0.2c0.1-0.1,0.2-0.2,0.3-0.4
		s0.1-0.3,0.1-0.5C88.3,14.7,88.2,14.4,87.9,14.2z"/>
	<path class="st0" d="M100.3,19.1c-0.4,0.2-0.9,0.3-1.4,0.3s-0.9-0.1-1.3-0.2c-0.4-0.2-0.7-0.4-0.9-0.7s-0.5-0.6-0.6-1
		s-0.2-0.8-0.2-1.2c0-0.4,0.1-0.8,0.2-1.2s0.3-0.7,0.6-1c0.3-0.3,0.6-0.5,0.9-0.7c0.4-0.2,0.8-0.3,1.2-0.3c0.2,0,0.5,0,0.7,0.1
		s0.4,0.1,0.6,0.2s0.3,0.2,0.5,0.3s0.3,0.2,0.5,0.3l-0.4,0.5c-0.1-0.1-0.2-0.2-0.4-0.3c-0.1-0.1-0.3-0.2-0.4-0.2s-0.3-0.1-0.5-0.1
		s-0.4-0.1-0.6-0.1c-0.3,0-0.6,0.1-0.9,0.2s-0.5,0.3-0.7,0.5s-0.4,0.5-0.5,0.8s-0.2,0.6-0.2,0.9c0,0.4,0.1,0.7,0.2,1
		s0.3,0.6,0.5,0.8s0.4,0.4,0.7,0.5c0.3,0.1,0.6,0.2,1,0.2c0.3,0,0.7-0.1,1-0.2s0.6-0.3,0.8-0.4v-1.5h-1.8V16h2.5v2.4
		C101,18.7,100.7,18.9,100.3,19.1z"/>
	<path class="st0" d="M109.1,19.2l-1.7-2.3h-1.7v2.3H105v-5.9h2.6c0.3,0,0.6,0,0.9,0.1s0.5,0.2,0.7,0.4s0.3,0.3,0.4,0.6
		c0.1,0.2,0.2,0.5,0.2,0.7s0,0.5-0.1,0.7c-0.1,0.2-0.2,0.4-0.3,0.5c-0.1,0.1-0.3,0.3-0.5,0.4s-0.4,0.2-0.6,0.2l1.8,2.4L109.1,19.2
		L109.1,19.2z M108.7,14.2c-0.3-0.2-0.6-0.3-1.1-0.3h-1.8v2.4h1.8c0.2,0,0.4,0,0.6-0.1s0.3-0.1,0.5-0.2c0.1-0.1,0.2-0.2,0.3-0.4
		s0.1-0.3,0.1-0.5C109.1,14.7,108.9,14.4,108.7,14.2z"/>
	<path class="st0" d="M119.4,19.2h-0.7l-0.7-1.6h-3.2l-0.7,1.6h-0.7l2.7-6h0.6L119.4,19.2z M116.3,14l-1.4,3h2.7L116.3,14z
		 M116.1,12.8l0.8-1.2l0.7,0.3l-1,0.9H116.1z"/>
	<path class="st0" d="M127.3,13.9h-3.6V16h3.2v0.6h-3.2v2.6H123v-5.9h4.3C127.3,13.3,127.3,13.9,127.3,13.9z"/>
	<path class="st0" d="M131.4,13.3v5.9h-0.7v-5.9C130.7,13.3,131.4,13.3,131.4,13.3z"/>
	<path class="st0" d="M140.1,18.7c-0.2,0.1-0.3,0.2-0.5,0.3c-0.2,0.1-0.4,0.2-0.6,0.2c-0.2,0.1-0.5,0.1-0.7,0.1
		c-0.4,0-0.8-0.1-1.2-0.2c-0.4-0.2-0.7-0.4-0.9-0.6c-0.3-0.3-0.5-0.6-0.6-1s-0.2-0.8-0.2-1.2c0-0.4,0.1-0.8,0.2-1.2
		c0.1-0.4,0.4-0.7,0.6-1c0.3-0.3,0.6-0.5,1-0.7s0.8-0.2,1.2-0.2c0.3,0,0.5,0,0.7,0.1c0.2,0,0.4,0.1,0.6,0.2c0.2,0.1,0.4,0.2,0.5,0.3
		c0.2,0.1,0.3,0.2,0.5,0.4l-0.5,0.5c-0.3-0.2-0.5-0.4-0.8-0.6c-0.3-0.2-0.6-0.2-1-0.2c-0.3,0-0.6,0.1-0.9,0.2
		c-0.3,0.1-0.5,0.3-0.7,0.5s-0.4,0.5-0.5,0.8s-0.2,0.6-0.2,1c0,0.3,0.1,0.7,0.2,1s0.3,0.6,0.5,0.8c0.2,0.2,0.4,0.4,0.7,0.5
		s0.6,0.2,0.9,0.2c0.4,0,0.8-0.1,1.1-0.2s0.6-0.4,0.9-0.6l0.4,0.4C140.4,18.4,140.3,18.6,140.1,18.7z"/>
	<path class="st0" d="M148.6,17.4c-0.1,0.4-0.4,0.7-0.6,1c-0.3,0.3-0.6,0.5-1,0.7s-0.8,0.3-1.2,0.3c-0.5,0-0.9-0.1-1.2-0.2
		c-0.4-0.2-0.7-0.4-1-0.7c-0.3-0.3-0.5-0.6-0.6-1s-0.2-0.8-0.2-1.2c0-0.4,0.1-0.8,0.2-1.2c0.1-0.4,0.4-0.7,0.6-1
		c0.3-0.3,0.6-0.5,1-0.7s0.8-0.3,1.2-0.3c0.5,0,0.9,0.1,1.2,0.2c0.4,0.2,0.7,0.4,1,0.7s0.5,0.6,0.6,1s0.2,0.8,0.2,1.2
		C148.8,16.7,148.7,17,148.6,17.4z M147.9,15.3c-0.1-0.3-0.3-0.6-0.5-0.8s-0.5-0.4-0.7-0.5c-0.3-0.1-0.6-0.2-0.9-0.2
		c-0.3,0-0.7,0.1-0.9,0.2c-0.3,0.1-0.5,0.3-0.7,0.5s-0.4,0.5-0.5,0.8s-0.2,0.6-0.2,1c0,0.3,0.1,0.7,0.2,1c0.1,0.3,0.3,0.6,0.5,0.8
		c0.2,0.2,0.5,0.4,0.7,0.5c0.3,0.1,0.6,0.2,0.9,0.2c0.3,0,0.7-0.1,0.9-0.2s0.5-0.3,0.7-0.5s0.4-0.5,0.5-0.8s0.2-0.6,0.2-1
		C148.1,15.9,148.1,15.6,147.9,15.3z"/>
</g>
<g>
	<polygon class="st0" points="13.4,13.6 13.4,19.3 7.2,19.3 1,13.1 1,0.7 6.7,0.7 6.7,13.6 	"/>
	<polygon class="st0" points="19.6,6.2 19.6,12.4 14,12.4 14,6.2 7.8,6.2 7.8,0.7 14,0.7 16.5,3.1 	"/>
</g>
</svg>
