<?xml version="1.0" standalone="no"?>
<!DOCTYPE svg PUBLIC "-//W3C//DTD SVG 20010904//EN"
 "http://www.w3.org/TR/2001/REC-SVG-20010904/DTD/svg10.dtd">
<svg version="1.0" xmlns="http://www.w3.org/2000/svg"
 width="300.000000pt" height="300.000000pt" viewBox="0 0 300.000000 300.000000"
 preserveAspectRatio="xMidYMid meet">
<metadata>
Created by potrace 1.11, written by Peter Selinger 2001-2013
</metadata>
<g transform="translate(0.000000,300.000000) scale(0.100000,-0.100000)"
fill="#000000" stroke="none">
<path d="M133 2872 l-23 -3 0 -1372 0 -1372 861 2 c474 1 863 4 866 6 7 8
-428 657 -440 658 -7 1 -124 3 -262 4 -137 1 -253 3 -257 4 -5 0 -8 467 -8
1036 0 569 -3 1035 -7 1036 -30 2 -713 3 -730 1z"/>
<path d="M1213 2872 c-20 -3 -23 -9 -23 -55 -1 -72 -1 -535 0 -574 l0 -31 285
-1 c304 0 364 -6 450 -47 115 -55 167 -143 168 -279 0 -70 -4 -92 -27 -138
-31 -63 -89 -121 -151 -148 -81 -36 -168 -44 -452 -44 -150 0 -273 -2 -273 -3
0 -3 397 -586 505 -742 17 -25 55 -81 85 -125 30 -44 57 -82 61 -85 3 -3 8
-12 12 -20 4 -8 72 -109 151 -224 80 -115 147 -213 148 -218 3 -8 627 -14 781
-9 14 1 -6 37 -89 157 -59 86 -151 222 -206 303 -55 80 -127 187 -162 236 -34
50 -88 128 -119 174 l-57 84 65 33 c223 115 375 285 447 500 38 113 43 156 43
334 -1 221 -32 336 -133 495 -161 252 -451 394 -859 421 -98 7 -613 11 -650 6z"/>
</g>
</svg>
